<svg width="92" height="95" viewBox="0 0 92 95" fill="none" xmlns="http://www.w3.org/2000/svg" xmlns:xlink="http://www.w3.org/1999/xlink">
<g filter="url(#filter0_d_292_2828)">
<path d="M41.3286 7.71651C44.3181 5.42767 48.471 5.42767 51.4605 7.71651L54.4671 10.0185C55.9782 11.1754 57.8397 11.7803 59.7422 11.7325L63.5277 11.6374C67.2916 11.5429 70.6514 13.9839 71.7246 17.5928L72.8039 21.2223C73.3464 23.0465 74.4969 24.63 76.0642 25.7096L79.1826 27.8578C82.2832 29.9937 83.5665 33.9433 82.3135 37.4938L81.0533 41.0646C80.4199 42.8592 80.4199 44.8166 81.0533 46.6112L82.3135 50.182C83.5665 53.7325 82.2832 57.6821 79.1826 59.818L76.0642 61.9661C74.4969 63.0457 73.3464 64.6293 72.8039 66.4534L71.7246 70.083C70.6514 73.6919 67.2916 76.1329 63.5277 76.0384L59.7422 75.9433C57.8397 75.8955 55.9782 76.5004 54.4671 77.6573L51.4605 79.9593C48.471 82.2481 44.3181 82.2481 41.3286 79.9593L38.322 77.6573C36.8109 76.5004 34.9493 75.8955 33.0468 75.9433L29.2613 76.0384C25.4974 76.1329 22.1377 73.6919 21.0645 70.083L19.9851 66.4534C19.4427 64.6293 18.2922 63.0457 16.7249 61.9661L13.6065 59.818C10.5059 57.6821 9.22259 53.7325 10.4756 50.182L11.7358 46.6112C12.3691 44.8166 12.3691 42.8592 11.7358 41.0646L10.4756 37.4938C9.22259 33.9433 10.5059 29.9937 13.6065 27.8578L16.7249 25.7097C18.2922 24.63 19.4427 23.0465 19.9851 21.2223L21.0645 17.5928C22.1377 13.9839 25.4974 11.5429 29.2613 11.6374L33.0468 11.7325C34.9493 11.7803 36.8109 11.1754 38.322 10.0185L41.3286 7.71651Z" fill="url(#paint0_linear_292_2828)"/>
<path d="M41.6328 8.11328C44.4428 5.96205 48.3462 5.96205 51.1562 8.11328L54.1631 10.415C55.7648 11.6414 57.7382 12.2831 59.7549 12.2324L63.54 12.1377C67.0781 12.0488 70.2363 14.343 71.2451 17.7354L72.3242 21.3652C72.8992 23.2986 74.1192 24.9768 75.7803 26.1211L78.8984 28.2695C81.813 30.2772 83.0195 33.9897 81.8418 37.3271L80.582 40.8984C79.9107 42.8007 79.9107 44.8751 80.582 46.7773L81.8418 50.3486C83.0195 53.686 81.813 57.3985 78.8984 59.4062L75.7803 61.5547C74.1192 62.699 72.8992 64.3771 72.3242 66.3105L71.2451 69.9404C70.2363 73.3328 67.0781 75.6269 63.54 75.5381L59.7549 75.4434C57.7382 75.3927 55.7648 76.0344 54.1631 77.2607L51.1562 79.5625C48.3462 81.7137 44.4428 81.7137 41.6328 79.5625L38.626 77.2607C37.0242 76.0344 35.0508 75.3927 33.0342 75.4434L29.249 75.5381C25.711 75.6269 22.5528 73.3328 21.5439 69.9404L20.4648 66.3105C19.8898 64.3771 18.6699 62.699 17.0088 61.5547L13.8906 59.4062C10.9761 57.3985 9.76951 53.686 10.9473 50.3486L12.207 46.7773C12.8783 44.8751 12.8783 42.8007 12.207 40.8984L10.9473 37.3271C9.76951 33.9897 10.9761 30.2772 13.8906 28.2695L17.0088 26.1211C18.6699 24.9768 19.8898 23.2986 20.4648 21.3652L21.5439 17.7354C22.5528 14.343 25.711 12.0488 29.249 12.1377L33.0342 12.2324C35.0508 12.2831 37.0242 11.6414 38.626 10.415L41.6328 8.11328Z" stroke="url(#paint1_linear_292_2828)"/>
</g>
<path d="M41.6328 8.11328C44.4428 5.96205 48.3462 5.96205 51.1562 8.11328L54.1631 10.415C55.7648 11.6414 57.7382 12.2831 59.7549 12.2324L63.54 12.1377C67.0781 12.0488 70.2363 14.343 71.2451 17.7354L72.3242 21.3652C72.8992 23.2986 74.1192 24.9768 75.7803 26.1211L78.8984 28.2695C81.813 30.2772 83.0195 33.9897 81.8418 37.3271L80.582 40.8984C79.9107 42.8007 79.9107 44.8751 80.582 46.7773L81.8418 50.3486C83.0195 53.686 81.813 57.3985 78.8984 59.4062L75.7803 61.5547C74.1192 62.699 72.8992 64.3771 72.3242 66.3105L71.2451 69.9404C70.2363 73.3328 67.0781 75.6269 63.54 75.5381L59.7549 75.4434C57.7382 75.3927 55.7648 76.0344 54.1631 77.2607L51.1562 79.5625C48.3462 81.7137 44.4428 81.7137 41.6328 79.5625L38.626 77.2607C37.0242 76.0344 35.0508 75.3927 33.0342 75.4434L29.249 75.5381C25.711 75.6269 22.5528 73.3328 21.5439 69.9404L20.4648 66.3105C19.8898 64.3771 18.6699 62.699 17.0088 61.5547L13.8906 59.4062C10.9761 57.3985 9.76951 53.686 10.9473 50.3486L12.207 46.7773C12.8783 44.8751 12.8783 42.8007 12.207 40.8984L10.9473 37.3271C9.76951 33.9897 10.9761 30.2772 13.8906 28.2695L17.0088 26.1211C18.6699 24.9768 19.8898 23.2986 20.4648 21.3652L21.5439 17.7354C22.5528 14.343 25.711 12.0488 29.249 12.1377L33.0342 12.2324C35.0508 12.2831 37.0242 11.6414 38.626 10.415L41.6328 8.11328Z" stroke="url(#paint2_linear_292_2828)"/>
<path d="M41.3283 12.05C44.3178 9.76116 48.4706 9.76116 51.4601 12.05L53.3393 13.4887C54.8504 14.6456 56.7119 15.2505 58.6144 15.2027L60.9803 15.1433C64.7442 15.0488 68.104 17.4898 69.1772 21.0987L69.8518 23.3671C70.3942 25.1913 71.5447 26.7748 73.112 27.8544L75.061 29.197C78.1616 31.3329 79.4449 35.2825 78.1919 38.833L77.4043 41.0647C76.7709 42.8594 76.7709 44.8167 77.4043 46.6114L78.1919 48.8431C79.4449 52.3936 78.1616 56.3432 75.061 58.4791L73.112 59.8217C71.5447 60.9013 70.3942 62.4848 69.8518 64.309L69.1772 66.5774C68.104 70.1863 64.7442 72.6273 60.9803 72.5328L58.6144 72.4734C56.7119 72.4256 54.8504 73.0305 53.3393 74.1874L51.4601 75.6261C48.4706 77.9149 44.3178 77.9149 41.3283 75.6261L39.4491 74.1874C37.9381 73.0305 36.0765 72.4256 34.174 72.4734L31.8081 72.5328C28.0442 72.6273 24.6844 70.1863 23.6112 66.5774L22.9366 64.309C22.3942 62.4848 21.2437 60.9013 19.6764 59.8217L17.7274 58.4791C14.6268 56.3432 13.3435 52.3936 14.5965 48.8431L15.3841 46.6114C16.0175 44.8167 16.0175 42.8594 15.3841 41.0647L14.5965 38.833C13.3435 35.2825 14.6268 31.3329 17.7274 29.197L19.6764 27.8544C21.2437 26.7748 22.3942 25.1913 22.9366 23.3671L23.6112 21.0987C24.6844 17.4898 28.0442 15.0488 31.8081 15.1433L34.174 15.2027C36.0765 15.2505 37.9381 14.6456 39.4491 13.4887L41.3283 12.05Z" fill="url(#paint3_linear_292_2828)"/>
<mask id="mask0_292_2828" style="mask-type:alpha" maskUnits="userSpaceOnUse" x="14" y="10" width="65" height="68">
<path opacity="0.5" d="M41.3283 12.05C44.3178 9.76116 48.4706 9.76116 51.4601 12.05L53.3393 13.4887C54.8504 14.6456 56.7119 15.2505 58.6144 15.2027L60.9803 15.1433C64.7442 15.0488 68.104 17.4898 69.1772 21.0987L69.8518 23.3671C70.3942 25.1913 71.5447 26.7748 73.112 27.8544L75.061 29.197C78.1616 31.3329 79.4449 35.2825 78.1919 38.833L77.4043 41.0647C76.7709 42.8594 76.7709 44.8167 77.4043 46.6114L78.1919 48.8431C79.4449 52.3936 78.1616 56.3432 75.061 58.4791L73.112 59.8217C71.5447 60.9013 70.3942 62.4848 69.8518 64.309L69.1772 66.5774C68.104 70.1863 64.7442 72.6273 60.9803 72.5328L58.6144 72.4734C56.7119 72.4256 54.8504 73.0305 53.3393 74.1874L51.4601 75.6261C48.4706 77.9149 44.3178 77.9149 41.3283 75.6261L39.4491 74.1874C37.9381 73.0305 36.0765 72.4256 34.174 72.4734L31.8081 72.5328C28.0442 72.6273 24.6844 70.1863 23.6112 66.5774L22.9366 64.309C22.3942 62.4848 21.2437 60.9013 19.6764 59.8217L17.7274 58.4791C14.6268 56.3432 13.3435 52.3936 14.5965 48.8431L15.3841 46.6114C16.0175 44.8167 16.0175 42.8594 15.3841 41.0647L14.5965 38.833C13.3435 35.2825 14.6268 31.3329 17.7274 29.197L19.6764 27.8544C21.2437 26.7748 22.3942 25.1913 22.9366 23.3671L23.6112 21.0987C24.6844 17.4898 28.0442 15.0488 31.8081 15.1433L34.174 15.2027C36.0765 15.2505 37.9381 14.6456 39.4491 13.4887L41.3283 12.05Z" fill="url(#paint4_linear_292_2828)"/>
</mask>
<g mask="url(#mask0_292_2828)">
<g id="Repeat group 1_inner" data-figma-trr="r16u1.4-0f">
<path d="M45.3952 36.5259L41.7285 4.02588L49.3952 4.02592L45.3952 36.5259Z" fill="url(#paint5_radial_292_2828)"/>
</g>
<use xlink:href="#Repeat%20group%201_inner" transform="translate(19.9335 -14.1607) rotate(22.5)"/>
<use xlink:href="#Repeat%20group%201_inner" transform="translate(43.7687 -19.6153) rotate(45)"/>
<use xlink:href="#Repeat%20group%201_inner" transform="translate(67.8769 -15.5333) rotate(67.5)"/>
<use xlink:href="#Repeat%20group%201_inner" transform="translate(88.5879 -2.53619) rotate(90)"/>
<use xlink:href="#Repeat%20group%201_inner" transform="translate(102.749 17.3973) rotate(112.5)"/>
<use xlink:href="#Repeat%20group%201_inner" transform="translate(108.203 41.2325) rotate(135)"/>
<use xlink:href="#Repeat%20group%201_inner" transform="translate(104.121 65.3408) rotate(157.5)"/>
<use xlink:href="#Repeat%20group%201_inner" transform="translate(91.1241 86.0518) rotate(-180)"/>
<use xlink:href="#Repeat%20group%201_inner" transform="translate(71.1906 100.212) rotate(-157.5)"/>
<use xlink:href="#Repeat%20group%201_inner" transform="translate(47.3554 105.667) rotate(-135)"/>
<use xlink:href="#Repeat%20group%201_inner" transform="translate(23.2472 101.585) rotate(-112.5)"/>
<use xlink:href="#Repeat%20group%201_inner" transform="translate(2.53619 88.5879) rotate(-90)"/>
<use xlink:href="#Repeat%20group%201_inner" transform="translate(-11.6245 68.6544) rotate(-67.5)"/>
<use xlink:href="#Repeat%20group%201_inner" transform="translate(-17.0791 44.8192) rotate(-45)"/>
<use xlink:href="#Repeat%20group%201_inner" transform="translate(-12.9971 20.711) rotate(-22.5)"/>
</g>
<path d="M28.0104 26.8232L28.4584 26.2895L31.697 29.008L31.249 29.5417L28.0104 26.8232ZM34.7494 26.2591L30.9568 25.5161L32.9478 27.8177L32.4208 28.2735L29.6545 25.0757L30.1139 24.6783L33.8981 25.4207L31.911 23.1236L32.4425 22.6639L35.2088 25.8617L34.7494 26.2591ZM34.11 21.5371L35.2635 20.9411C35.5422 20.7972 35.826 20.7108 36.1151 20.6822C36.4041 20.6535 36.6806 20.6782 36.9444 20.7564C37.2083 20.8346 37.4488 20.9629 37.666 21.1411C37.8868 21.3175 38.0655 21.538 38.2022 21.8026C38.3388 22.0671 38.4153 22.3405 38.4314 22.6226C38.4511 22.9029 38.4165 23.1733 38.3276 23.4337C38.2387 23.6941 38.0989 23.9339 37.9083 24.1531C37.7176 24.3723 37.483 24.5538 37.2043 24.6978L36.0509 25.2937L34.11 21.5371ZM36.9064 24.1211C37.1074 24.0172 37.2718 23.8898 37.3994 23.739C37.5306 23.5863 37.6243 23.4217 37.6805 23.2452C37.7403 23.0668 37.761 22.8818 37.7425 22.6903C37.7239 22.4988 37.6673 22.3113 37.5725 22.1279C37.4778 21.9445 37.3576 21.7898 37.2121 21.6638C37.0666 21.5379 36.9039 21.4477 36.7238 21.3933C36.5473 21.337 36.3588 21.3182 36.1584 21.3368C35.9615 21.3536 35.7625 21.414 35.5614 21.5179L35.0271 21.794L36.372 24.3972L36.9064 24.1211ZM38.5171 19.4006L39.177 19.1768L40.5351 23.1812L39.8752 23.405L38.5171 19.4006ZM42.1336 18.5269L42.7319 18.4217L45.2826 22.2664L44.567 22.3922L43.9 21.3848L42.0348 21.7128L41.7574 22.8863L41.0477 23.0112L42.1336 18.5269ZM42.1915 21.0564L43.5288 20.8212L42.5898 19.4021L42.1915 21.0564ZM45.5913 19.8487L45.1866 19.8644L45.5697 18.9794C45.4888 18.9428 45.417 18.884 45.3543 18.803C45.2916 18.722 45.2581 18.6279 45.254 18.5208C45.2513 18.4494 45.2625 18.3814 45.2879 18.3168C45.3132 18.2523 45.3468 18.1974 45.3888 18.152C45.4346 18.1026 45.4867 18.0628 45.5451 18.0328C45.6075 18.0025 45.6744 17.9861 45.7458 17.9833C45.8887 17.9778 46.0117 18.0247 46.1148 18.124C46.2218 18.2192 46.278 18.3382 46.2835 18.4811C46.2857 18.5366 46.2779 18.5925 46.2602 18.6488C46.2463 18.701 46.2245 18.7535 46.1948 18.8063L45.5913 19.8487ZM48.2692 22.4904C48.0992 22.4737 47.9392 22.4381 47.7889 22.3835C47.6383 22.3329 47.5009 22.2696 47.3767 22.1936C47.2568 22.114 47.15 22.0238 47.0561 21.9228C46.9666 21.8183 46.8959 21.7057 46.8438 21.5849L47.4315 21.2056C47.5255 21.3863 47.6508 21.5323 47.8075 21.6433C47.9682 21.7548 48.1512 21.8206 48.3567 21.8407C48.5543 21.86 48.7209 21.8285 48.8566 21.746C48.9963 21.6639 49.0739 21.5439 49.0894 21.3858C49.1041 21.2357 49.0668 21.1064 48.9777 20.9979C48.889 20.8855 48.7475 20.7819 48.5534 20.6871L48.1073 20.4759C47.7834 20.3205 47.5478 20.1399 47.4004 19.934C47.2569 19.7284 47.1993 19.4815 47.2276 19.193C47.2453 19.0112 47.295 18.8505 47.3765 18.7109C47.4623 18.5677 47.5713 18.4527 47.7034 18.3659C47.836 18.2752 47.988 18.2103 48.1593 18.1712C48.3307 18.1321 48.5152 18.1222 48.7127 18.1416C48.9735 18.1671 49.2078 18.2399 49.4154 18.36C49.6231 18.48 49.7949 18.6404 49.9308 18.8412L49.4049 19.2625C49.3106 19.1256 49.2015 19.0172 49.0777 18.9373C48.9539 18.8573 48.809 18.8092 48.643 18.793C48.5521 18.7841 48.466 18.7876 48.3847 18.8036C48.3037 18.8156 48.2295 18.8403 48.162 18.8776C48.0989 18.9113 48.0464 18.958 48.0047 19.0177C47.9633 19.0735 47.9389 19.139 47.9316 19.214C47.9165 19.3681 47.9561 19.4937 48.0503 19.5907C48.1489 19.6841 48.303 19.781 48.5126 19.8813L48.9237 20.0831C49.2246 20.2282 49.4523 20.4081 49.6069 20.6227C49.7657 20.8337 49.8277 21.0971 49.7928 21.4128C49.7746 21.5985 49.7226 21.763 49.6368 21.9062C49.5553 22.0458 49.4461 22.1627 49.3093 22.2571C49.1763 22.3518 49.02 22.4202 48.8404 22.4625C48.665 22.5012 48.4746 22.5105 48.2692 22.4904ZM53.1971 19.7421L52.3852 19.485L53.0581 19.0171L54.0176 19.3209L52.7412 23.3521L52.1167 23.1543L53.1971 19.7421ZM54.7386 24.3029C54.5845 24.2295 54.446 24.1417 54.3233 24.0393C54.1988 23.9405 54.0911 23.8342 54.0001 23.7206C53.9143 23.605 53.8445 23.4838 53.7905 23.357C53.7419 23.2283 53.7136 23.0983 53.7057 22.9671L54.3873 22.81C54.4143 23.0119 54.4826 23.1917 54.5922 23.3494C54.7054 23.5088 54.8552 23.6329 55.0417 23.7216C55.2209 23.8069 55.3884 23.8339 55.544 23.8024C55.7033 23.7727 55.817 23.6861 55.8853 23.5427C55.9501 23.4065 55.9591 23.2722 55.9121 23.1399C55.8668 23.0041 55.769 22.8586 55.6186 22.7035L55.2708 22.3533C55.0189 22.0971 54.8587 21.8471 54.79 21.6034C54.7249 21.3614 54.7547 21.1095 54.8792 20.8478C54.9577 20.6829 55.059 20.5486 55.1831 20.445C55.3124 20.3395 55.454 20.2683 55.6078 20.2316C55.7633 20.1913 55.9283 20.1819 56.1027 20.2033C56.2772 20.2248 56.454 20.2782 56.6333 20.3635C56.8699 20.4761 57.0655 20.6241 57.22 20.8076C57.3745 20.9911 57.4816 21.2003 57.5412 21.4354L56.9034 21.6529C56.8612 21.4921 56.7955 21.3531 56.7062 21.2358C56.6169 21.1186 56.497 21.0241 56.3464 20.9525C56.2639 20.9132 56.1817 20.8873 56.0998 20.8747C56.0196 20.8585 55.9414 20.8564 55.8653 20.8686C55.7944 20.8788 55.7292 20.905 55.6697 20.947C55.6118 20.9854 55.5667 21.0387 55.5342 21.1068C55.4677 21.2466 55.4623 21.3781 55.5179 21.5013C55.5789 21.6227 55.6909 21.7661 55.854 21.9317L56.172 22.2611C56.4058 22.4999 56.5589 22.7464 56.6313 23.0008C56.709 23.2532 56.6778 23.522 56.5377 23.8071C56.4576 23.9756 56.3528 24.1126 56.2234 24.2181C56.0993 24.3217 55.9569 24.3946 55.7961 24.4368C55.6389 24.4807 55.4686 24.492 55.2853 24.4707C55.1073 24.4476 54.925 24.3916 54.7386 24.3029ZM59.3539 22.7874L58.3524 22.0788L58.7376 21.5343L61.3144 23.3573L60.9291 23.9018L59.9227 23.1898L57.8658 26.0971L57.297 25.6947L59.3539 22.7874ZM61.0003 25.64L61.8082 25.5098L61.4384 24.7746L61.8584 24.5452L62.2409 25.2845L62.8067 24.7133L63.1452 25.0486L62.5794 25.6198L63.3224 25.9953L63.1012 26.4217L62.3625 26.0504L62.24 26.8679L61.7765 26.7943L61.8947 25.981L61.0783 26.1028L61.0003 25.64Z" fill="url(#paint6_linear_292_2828)"/>
<path d="M27.2593 53.4423L27.568 54.0727L23.7421 55.9463L23.4334 55.3159L27.2593 53.4423ZM26.4842 60.2354L27.6035 56.5061L25.0994 58.2753L24.6943 57.7019L28.1736 55.2438L28.5267 55.7437L27.4089 59.4646L29.9081 57.6989L30.3166 58.2772L26.8374 60.7353L26.4842 60.2354ZM28.8668 63.1712C28.7429 63.0519 28.6385 62.9239 28.5538 62.7869C28.4663 62.6528 28.3972 62.5169 28.3464 62.3793C28.3013 62.2416 28.2731 62.1035 28.262 61.9651C28.2564 61.8266 28.2708 61.6934 28.3051 61.5654L29.0066 61.6323C28.9681 61.8339 28.9761 62.0276 29.0306 62.2132C29.088 62.4016 29.1917 62.5679 29.3416 62.7121C29.4858 62.8507 29.6373 62.9298 29.7961 62.9494C29.9578 62.9717 30.0941 62.9252 30.205 62.8098C30.3103 62.7003 30.3616 62.5748 30.3589 62.4334C30.3589 62.2891 30.3117 62.1189 30.2174 61.9227L29.9965 61.4772C29.8374 61.1522 29.7638 60.8622 29.7758 60.6074C29.7907 60.3553 29.8994 60.124 30.1018 59.9136C30.2293 59.781 30.3689 59.6849 30.5205 59.6253C30.6778 59.5657 30.8357 59.5428 30.9944 59.5567C31.1559 59.5677 31.3166 59.6112 31.4765 59.6873C31.6364 59.7634 31.7884 59.8708 31.9326 60.0094C32.1229 60.1924 32.2626 60.3962 32.3519 60.6208C32.4411 60.8454 32.4768 61.0795 32.4589 61.3231L31.7801 61.3279C31.791 61.1607 31.7724 61.0069 31.7244 60.8664C31.6764 60.7259 31.5918 60.5974 31.4708 60.481C31.4044 60.4172 31.3341 60.3662 31.2598 60.3281C31.1883 60.287 31.1142 60.2602 31.0376 60.2475C30.9666 60.2348 30.896 60.239 30.8257 60.2601C30.7582 60.2784 30.698 60.315 30.6454 60.3698C30.5372 60.4822 30.4901 60.6062 30.5041 60.7417C30.5237 60.8771 30.5851 61.0499 30.6882 61.26L30.8873 61.6763C31.0346 61.9789 31.1024 62.2633 31.0906 62.5295C31.0845 62.7955 30.9691 63.0425 30.7444 63.2703C30.6141 63.4058 30.4703 63.5034 30.313 63.5631C30.1614 63.6226 30.002 63.6469 29.8349 63.636C29.6707 63.6279 29.5043 63.5845 29.3359 63.5057C29.1731 63.4269 29.0168 63.3154 28.8668 63.1712ZM32.5826 66.1701C32.3711 66.0332 32.1998 65.8746 32.0687 65.6944C31.9397 65.5108 31.8517 65.3156 31.8046 65.1087C31.7629 64.9007 31.7656 64.6832 31.8125 64.4563C31.8627 64.2315 31.9596 64.0083 32.1031 63.7867L33.512 61.611L34.1012 61.9925L32.6858 64.1783C32.5032 64.4603 32.4374 64.7275 32.4885 64.9798C32.5451 65.2309 32.6993 65.438 32.9511 65.601C33.203 65.7641 33.4533 65.819 33.7023 65.7657C33.9534 65.7091 34.1702 65.5398 34.3528 65.2578L35.7682 63.072L36.3575 63.4536L34.9486 65.6293C34.8051 65.8509 34.6394 66.0295 34.4515 66.1651C34.2636 66.3008 34.0645 66.3911 33.8543 66.4361C33.6497 66.4798 33.4372 66.4805 33.2169 66.4379C33.0022 66.3942 32.7908 66.3049 32.5826 66.1701ZM37.2714 64.0237L38.7018 64.5833C38.8843 64.6548 39.0391 64.7476 39.1663 64.8617C39.2934 64.9759 39.3895 65.1037 39.4544 65.2451C39.5194 65.3865 39.5528 65.537 39.5548 65.6967C39.5567 65.8564 39.5256 66.0182 39.4615 66.1821C39.3522 66.4614 39.1836 66.6618 38.9557 66.7831C38.7293 66.9007 38.4603 66.935 38.1487 66.8861L38.9264 69.2457L38.1218 68.9309L37.3511 66.6192L37.055 66.5033L36.3729 68.2466L35.7192 67.9908L37.2714 64.0237ZM37.9764 66.2066C38.1701 66.2824 38.3404 66.2975 38.4871 66.2518C38.6338 66.2061 38.7407 66.0976 38.8078 65.9263C38.8748 65.7549 38.8699 65.6027 38.7932 65.4696C38.7164 65.3364 38.5812 65.232 38.3875 65.1562L37.689 64.8829L37.278 65.9334L37.9764 66.2066ZM42.2756 65.6625L42.8793 65.763L44.0145 70.2706L43.2924 70.1504L42.9963 68.9697L41.1142 68.6564L40.4574 69.6784L39.7413 69.5592L42.2756 65.6625ZM41.483 68.0852L42.8324 68.3099L42.4158 66.6469L41.483 68.0852ZM48.5914 70.2232L46.0201 67.2993L46.1953 70.3603L45.4944 70.4004L45.2511 66.1474L45.8621 66.1124L48.427 69.0306L48.2521 65.9756L48.959 65.9352L49.2024 70.1882L48.5914 70.2232ZM53.0413 69.488C52.7456 69.5741 52.4534 69.6008 52.1648 69.5681C51.8789 69.5305 51.6125 69.4455 51.3657 69.3132C51.1178 69.1771 50.9007 68.9965 50.7145 68.7716C50.5321 68.5456 50.3978 68.2847 50.3118 67.989C50.2257 67.6932 50.199 67.401 50.2317 67.1124C50.2682 66.8227 50.3551 66.5558 50.4924 66.3117C50.6285 66.0638 50.8077 65.8492 51.0299 65.6679C51.2548 65.4816 51.5151 65.3455 51.8109 65.2594C52.2142 65.1421 52.6026 65.1311 52.9761 65.2266C53.3535 65.3209 53.6802 65.4987 53.9562 65.76L53.4715 66.2634C53.2734 66.0836 53.0497 65.9592 52.8005 65.8901C52.5512 65.8209 52.2845 65.8277 52.0003 65.9104C51.7967 65.9697 51.6178 66.0634 51.4635 66.1916C51.313 66.3187 51.192 66.4685 51.1006 66.6409C51.0118 66.8084 50.9567 66.991 50.9351 67.1889C50.9135 67.3869 50.9324 67.5876 50.9916 67.7911C51.0508 67.9947 51.1426 68.1742 51.267 68.3296C51.3914 68.4851 51.5365 68.6116 51.7024 68.7091C51.8709 68.8017 52.0528 68.8613 52.248 68.8878C52.447 68.9132 52.6483 68.8963 52.8519 68.837C53.1361 68.7543 53.3648 68.617 53.5381 68.4249C53.7113 68.2329 53.8333 68.0078 53.904 67.7498L54.5831 67.9146C54.4904 68.2832 54.3101 68.6085 54.0422 68.8906C53.7782 69.1716 53.4446 69.3707 53.0413 69.488ZM54.3829 64.5679L56.6467 63.3682L56.9614 63.962L55.3179 64.833L55.8292 65.7978L57.1546 65.0954L57.4693 65.6892L56.1439 66.3916L56.6834 67.4095L58.3268 66.5385L58.6415 67.1323L56.3778 68.332L54.3829 64.5679ZM59.944 60.9129L60.3876 60.4913L64.6707 62.2976L64.1401 62.8019L63.019 62.3278L61.636 63.6423L62.057 64.7819L61.5308 65.2821L59.944 60.9129ZM61.4018 63.004L62.3934 62.0616L60.8146 61.3934L61.4018 63.004ZM64.9938 57.2303C65.1533 57.3443 65.282 57.4806 65.3801 57.6392C65.4749 57.7955 65.5343 57.9634 65.5585 58.1428C65.5849 58.3191 65.5751 58.5014 65.529 58.6897C65.4828 58.878 65.3958 59.0616 65.2679 59.2406L64.8875 59.7726L66.0883 60.631L65.68 61.2021L62.2145 58.7246L63.0031 57.6215C63.131 57.4426 63.2766 57.3008 63.4399 57.1962C63.6031 57.0917 63.7724 57.0234 63.9477 56.9914C64.1254 56.9561 64.3051 56.9592 64.4869 57.0006C64.6654 57.0398 64.8344 57.1163 64.9938 57.2303ZM64.5926 57.7916C64.4234 57.6707 64.2411 57.6264 64.0458 57.6589C63.8528 57.6881 63.683 57.8052 63.5365 58.0102L63.1596 58.5374L64.3506 59.3888L64.7275 58.8616C64.874 58.6566 64.9299 58.4581 64.8951 58.266C64.8626 58.0707 64.7618 57.9126 64.5926 57.7916ZM66.9564 53.6911C67.1308 53.7804 67.2782 53.8963 67.3985 54.0387C67.5152 54.1794 67.5987 54.3367 67.6489 54.5107C67.701 54.6812 67.7181 54.8629 67.7001 55.0559C67.6822 55.249 67.6231 55.4434 67.5228 55.6392L67.2248 56.2214L68.5387 56.894L68.2188 57.5189L64.4268 55.5776L65.0447 54.3706C65.145 54.1747 65.2681 54.0131 65.4142 53.8857C65.5604 53.7583 65.7178 53.6659 65.8865 53.6084C66.057 53.5474 66.2352 53.5241 66.4211 53.5384C66.6035 53.5509 66.7819 53.6017 66.9564 53.6911ZM66.6419 54.3053C66.4568 54.2105 66.27 54.1935 66.0816 54.2543C65.895 54.3116 65.7443 54.4524 65.6295 54.6767L65.3342 55.2535L66.6373 55.9206L66.9326 55.3438C67.0474 55.1195 67.0735 54.9149 67.0109 54.7301C66.9501 54.5416 66.8271 54.4 66.6419 54.3053Z" fill="url(#paint7_linear_292_2828)"/>
<g filter="url(#filter1_d_292_2828)">
<path d="M39.1688 33.5971C40.897 32.9537 42.2361 31.3807 42.8153 30.3044C42.9752 30.0074 43.2732 29.793 43.6106 29.793H49.5953C50.0343 29.793 50.3902 30.1451 50.3902 30.5841V49.4927C50.3902 51.6974 52.0223 52.5265 53.2287 52.7501C53.6764 52.8331 54.0615 53.1969 54.0615 53.6522V56.4212C54.0615 56.8602 53.7056 57.216 53.2667 57.216H39.7538C39.3148 57.216 38.959 56.8602 38.959 56.4212V53.6095C38.959 53.1705 39.3171 52.8224 39.7518 52.7612C42.194 52.4172 42.9717 50.4984 43.0475 49.4927V38.6611C43.0475 38.2221 42.6916 37.8663 42.2526 37.8663H39.3564C38.9174 37.8663 38.5615 37.5104 38.5615 37.0714V34.4135C38.5615 34.0425 38.821 33.7266 39.1688 33.5971Z" fill="url(#paint8_linear_292_2828)"/>
<path d="M43.6104 29.9912H49.5957C49.926 29.9914 50.1914 30.2561 50.1914 30.584V49.4932C50.1915 50.6505 50.6226 51.4621 51.2227 52.0107C51.817 52.554 52.5652 52.829 53.1924 52.9453C53.5715 53.0156 53.8633 53.3166 53.8633 53.6523V56.4209C53.8633 56.7501 53.5958 57.0176 53.2666 57.0176H39.7539C39.4247 57.0176 39.1572 56.7501 39.1572 56.4209V53.6094C39.1573 53.2867 39.4247 53.008 39.7793 52.958C42.3417 52.5972 43.1656 50.5754 43.2461 49.5078V38.6611C43.2461 38.1125 42.8015 37.6681 42.2529 37.668H39.3564C39.0272 37.668 38.7598 37.4005 38.7598 37.0713V34.4131C38.76 34.1396 38.9541 33.889 39.2383 33.7832C41.0254 33.1178 42.3963 31.502 42.9902 30.3984C43.1226 30.1524 43.3603 29.9913 43.6104 29.9912Z" stroke="url(#paint9_linear_292_2828)" stroke-width="0.397436"/>
</g>
<path d="M43.6104 29.9912H49.5957C49.926 29.9914 50.1914 30.2561 50.1914 30.584V49.4932C50.1915 50.6505 50.6226 51.4621 51.2227 52.0107C51.817 52.554 52.5652 52.829 53.1924 52.9453C53.5715 53.0156 53.8633 53.3166 53.8633 53.6523V56.4209C53.8633 56.7501 53.5958 57.0176 53.2666 57.0176H39.7539C39.4247 57.0176 39.1572 56.7501 39.1572 56.4209V53.6094C39.1573 53.2867 39.4247 53.008 39.7793 52.958C42.3417 52.5972 43.1656 50.5754 43.2461 49.5078V38.6611C43.2461 38.1125 42.8015 37.6681 42.2529 37.668H39.3564C39.0272 37.668 38.7598 37.4005 38.7598 37.0713V34.4131C38.76 34.1396 38.9541 33.889 39.2383 33.7832C41.0254 33.1178 42.3963 31.502 42.9902 30.3984C43.1226 30.1524 43.3603 29.9913 43.6104 29.9912Z" fill="url(#paint10_linear_292_2828)" stroke="url(#paint11_linear_292_2828)" stroke-width="0.397436"/>
<defs>
<filter id="filter0_d_292_2828" x="2.98023e-07" y="2.38419e-07" width="91.4557" height="94.3424" filterUnits="userSpaceOnUse" color-interpolation-filters="sRGB">
<feFlood flood-opacity="0" result="BackgroundImageFix"/>
<feColorMatrix in="SourceAlpha" type="matrix" values="0 0 0 0 0 0 0 0 0 0 0 0 0 0 0 0 0 0 127 0" result="hardAlpha"/>
<feOffset dx="-0.666667" dy="3.33333"/>
<feGaussianBlur stdDeviation="4.66667"/>
<feComposite in2="hardAlpha" operator="out"/>
<feColorMatrix type="matrix" values="0 0 0 0 0.783335 0 0 0 0 0.535279 0 0 0 0 0 0 0 0 0.25 0"/>
<feBlend mode="normal" in2="BackgroundImageFix" result="effect1_dropShadow_292_2828"/>
<feBlend mode="normal" in="SourceGraphic" in2="effect1_dropShadow_292_2828" result="shape"/>
</filter>
<filter id="filter1_d_292_2828" x="38.1641" y="29.793" width="16.2949" height="28.2177" filterUnits="userSpaceOnUse" color-interpolation-filters="sRGB">
<feFlood flood-opacity="0" result="BackgroundImageFix"/>
<feColorMatrix in="SourceAlpha" type="matrix" values="0 0 0 0 0 0 0 0 0 0 0 0 0 0 0 0 0 0 127 0" result="hardAlpha"/>
<feOffset dy="0.397436"/>
<feGaussianBlur stdDeviation="0.198718"/>
<feComposite in2="hardAlpha" operator="out"/>
<feColorMatrix type="matrix" values="0 0 0 0 0.599065 0 0 0 0 0.349454 0 0 0 0 0 0 0 0 0.25 0"/>
<feBlend mode="normal" in2="BackgroundImageFix" result="effect1_dropShadow_292_2828"/>
<feBlend mode="normal" in="SourceGraphic" in2="effect1_dropShadow_292_2828" result="shape"/>
</filter>
<linearGradient id="paint0_linear_292_2828" x1="46.3945" y1="3.83789" x2="46.3945" y2="83.8379" gradientUnits="userSpaceOnUse">
<stop stop-color="#FFF5CE"/>
<stop offset="1" stop-color="#EDCA89"/>
</linearGradient>
<linearGradient id="paint1_linear_292_2828" x1="46.3945" y1="3.83789" x2="46.3945" y2="83.8379" gradientUnits="userSpaceOnUse">
<stop stop-color="#FFC66A"/>
<stop offset="1" stop-color="#CB9966"/>
</linearGradient>
<linearGradient id="paint2_linear_292_2828" x1="36.3945" y1="7.17122" x2="47.7279" y2="31.0046" gradientUnits="userSpaceOnUse">
<stop stop-color="#FFEAC8"/>
<stop offset="1" stop-color="#CB9966" stop-opacity="0"/>
</linearGradient>
<linearGradient id="paint3_linear_292_2828" x1="46.3942" y1="8.17139" x2="46.3942" y2="79.5047" gradientUnits="userSpaceOnUse">
<stop stop-color="#FFFBE9"/>
<stop offset="1" stop-color="#FFEAAA"/>
</linearGradient>
<linearGradient id="paint4_linear_292_2828" x1="46.3942" y1="8.17139" x2="46.3942" y2="79.5047" gradientUnits="userSpaceOnUse">
<stop stop-color="#FFFBE9"/>
<stop offset="1" stop-color="#FFEAAA"/>
</linearGradient>
<radialGradient id="paint5_radial_292_2828" cx="0" cy="0" r="1" gradientUnits="userSpaceOnUse" gradientTransform="translate(45.5618 20.2759) rotate(90) scale(16.25 3.83333)">
<stop stop-color="#FFF8E0"/>
<stop offset="1" stop-color="#FFF6D7"/>
</radialGradient>
<linearGradient id="paint6_linear_292_2828" x1="46.3952" y1="61.7176" x2="46.3952" y2="22.2441" gradientUnits="userSpaceOnUse">
<stop stop-color="#976742"/>
<stop offset="1" stop-color="#C79650"/>
</linearGradient>
<linearGradient id="paint7_linear_292_2828" x1="46.3952" y1="18.1711" x2="46.3952" y2="70.5044" gradientUnits="userSpaceOnUse">
<stop stop-color="#976742"/>
<stop offset="1" stop-color="#C79650"/>
</linearGradient>
<linearGradient id="paint8_linear_292_2828" x1="46.5102" y1="29.3955" x2="46.5102" y2="57.216" gradientUnits="userSpaceOnUse">
<stop stop-color="#FFDE7A"/>
<stop offset="1" stop-color="#D49D3F"/>
</linearGradient>
<linearGradient id="paint9_linear_292_2828" x1="46.5102" y1="29.3955" x2="46.5102" y2="57.216" gradientUnits="userSpaceOnUse">
<stop stop-color="#F8D062"/>
<stop offset="1" stop-color="#C89843"/>
</linearGradient>
<linearGradient id="paint10_linear_292_2828" x1="42.834" y1="27.6071" x2="49.1929" y2="45.6904" gradientUnits="userSpaceOnUse">
<stop stop-color="#FFE79E"/>
<stop offset="0.760734" stop-color="#FFD079"/>
<stop offset="1" stop-color="#E8B255" stop-opacity="0"/>
</linearGradient>
<linearGradient id="paint11_linear_292_2828" x1="46.5102" y1="29.3955" x2="46.5102" y2="57.216" gradientUnits="userSpaceOnUse">
<stop stop-color="#F8D062"/>
<stop offset="1" stop-color="#C89843"/>
</linearGradient>
</defs>
</svg>
